<svg id="Layer_1" xmlns="http://www.w3.org/2000/svg" width="702.2" height="153.3"><style>.st0{fill:#fff}</style><path class="st0" d="M48.7 87.5l-15-30.2H16.8v30.2H0v-84h39.1C55 3.5 68 12.2 68 30.1c0 12.6-5.4 20.5-16.1 24.7L68 87.5H48.7zm-9.9-67.7h-22v21.6h22c7.8 0 12-3.6 12-10.9 0-7.6-4.6-10.7-12-10.7zm71.1 67.7v-4.2c-3 3.1-8.3 5.5-14.2 5.5-11.8 0-23.5-7.2-23.5-22.4 0-13.9 11.3-20.9 25.6-20.9 5.8 0 9.5 1.2 12.1 2.5v-3.1c0-4.4-3-8-9-8-7.6 0-11.5 1.1-17.3 4.2l-6.4-11.5c7.3-4.2 13.4-6.4 23.6-6.4 15.2 0 25.6 7.9 25.6 22.1v42.2h-16.5zm0-26.4c-2.9-1.8-5.6-2.6-11.5-2.6-6.2 0-9.6 2.9-9.6 7.9 0 4.4 2.5 8.4 9.6 8.4 5.4 0 9.7-2.8 11.5-5.8v-7.9zm33.3-41.8c-5.2 0-9.5-4.3-9.5-9.5S138 .3 143.2.3s9.5 4.3 9.5 9.5c-.1 5.2-4.4 9.5-9.5 9.5zm-8.3 68.2v-63h16.6v63h-16.6zm26.1 0V8.3L177.6 0v87.5H161zm49.7 1.3c-10 0-19.7-2.9-26.4-7.3l5.5-12.6c6.7 3.7 13.8 5.8 21.8 5.8 6.5 0 8.4-1.6 8.4-4.8 0-2.9-2.3-4.3-9.2-6.4-15.1-4.6-24.8-8.3-24.8-21.6 0-13.1 10.4-18.7 25.2-18.7 7.9 0 16.6 2.4 23.3 6.1l-5.3 13.1c-6.2-3.4-13.1-5-18.4-5-6.7 0-8.5 1.3-8.5 4.1 0 2.6 1.9 3.7 13.1 7.3 11.3 3.7 21 7.8 21 20.4 0 14.4-11.5 19.6-25.7 19.6zm94.8 0c-22 0-36.7-16.8-36.7-43.3 0-25.6 15.4-43.3 37.3-43.3 17.2 0 26.3 8 31.8 21l-16 6.6c-3.1-6.2-7-10.9-16.1-10.9-12.6 0-19.8 11-19.8 26.6 0 15.5 7.3 26.9 19.9 26.9 11.5 0 15.5-5.4 16.4-12.7H309V43.9h30.1v11c.1 21.7-14.1 33.9-33.6 33.9zm49.9-69.5c-5.2 0-9.5-4.3-9.5-9.5s4.3-9.5 9.5-9.5 9.5 4.3 9.5 9.5-4.3 9.5-9.5 9.5zm-8.2 68.2v-63h16.6v63h-16.6zm62.4-43.7c-2.6-2.4-5.9-4.1-9.6-4.1-6.5 0-10.7 2.8-10.7 13.7v34.1h-16.6v-63h16.6v4.2c2.9-3 7.1-5.5 13-5.5 5.4 0 9.5 2.2 11.6 4.4l-4.3 16.2zm7.4 43.7V8.3L433.6 0v87.5H417zm49.7 1.3c-10 0-19.7-2.9-26.4-7.3l5.5-12.6c6.7 3.7 13.8 5.8 21.8 5.8 6.5 0 8.4-1.6 8.4-4.8 0-2.9-2.3-4.3-9.2-6.4-15.1-4.6-24.8-8.3-24.8-21.6 0-13.1 10.4-18.7 25.2-18.7 7.9 0 16.6 2.4 23.3 6.1l-5.3 13.1c-6.2-3.4-13.1-5-18.4-5-6.7 0-8.5 1.3-8.5 4.1 0 2.6 1.9 3.7 13.1 7.3 11.3 3.7 21 7.8 21 20.4 0 14.4-11.6 19.6-25.7 19.6zM17.2 153.3c-6.9 0-13.1-3-17.2-7.1l3.8-4.2c3.9 3.7 8.3 6.1 13.6 6.1 6.8 0 11-3.4 11-8.8 0-4.7-2.8-7.4-12.2-10.8-11-3.9-14.7-7.5-14.7-14.9 0-8.2 6.4-13.1 16-13.1 6.9 0 11.2 2 15.5 5.5l-3.7 4.5c-3.7-3.1-7.2-4.7-12.3-4.7-7 0-9.9 3.5-9.9 7.5 0 4.2 1.9 6.6 12.1 10.3 11.3 4.1 14.8 7.9 14.8 15.5.1 8-6.2 14.2-16.8 14.2zm48.2-.8v-4.7c-2.2 3.2-5.8 5.5-10.6 5.5-8.1 0-13.4-4.7-13.4-15.8v-23.4h5.5v22.4c0 8.2 2.9 12 9.1 12 5.3 0 9.5-3.6 9.5-12v-22.4H71v38.3h-5.6zm58.5 0v-22.4c0-8.8-2.7-12-8.2-12-5.2 0-8.5 3.5-8.5 12v22.4h-5.5v-22.4c0-8.8-2.9-12-8.2-12-5.3 0-8.5 3.5-8.5 12v22.4h-5.5v-38.3H85v4.7c2-3.3 5.2-5.5 9.7-5.5 5.4 0 8.7 2.9 10.5 6.6 2.3-3.7 5.4-6.6 11.6-6.6 7.8 0 12.7 4.6 12.7 15.8v23.4h-5.6zm58.2 0v-22.4c0-8.8-2.7-12-8.2-12-5.2 0-8.5 3.5-8.5 12v22.4h-5.5v-22.4c0-8.8-2.9-12-8.2-12-5.3 0-8.5 3.5-8.5 12v22.4h-5.5v-38.3h5.5v4.7c2-3.3 5.2-5.5 9.7-5.5 5.4 0 8.7 2.9 10.5 6.6 2.3-3.7 5.4-6.6 11.6-6.6 7.8 0 12.7 4.6 12.7 15.8v23.4h-5.6zm42.7-17.3h-25.5c.5 8.2 4.4 13.4 10.7 13.4 4.5 0 7.1-1.3 10.6-3.7l2.6 3.9c-4.6 2.9-8 4.5-13.7 4.5-7 0-15.5-5.1-15.5-20.1 0-12.2 6.7-19.8 15.8-19.8 10 0 15.4 7.9 15.4 18.8-.1 1.3-.2 2.1-.4 3zm-15.2-17.1c-5.7 0-9.6 4.1-10.3 12.6H220c-.5-7.4-3.7-12.6-10.4-12.6zm41.6 1.7c-1.5-.9-3.2-1.5-5.8-1.5-5.3 0-8.3 4.3-8.3 11.6v22.5h-5.5v-38.3h5.5v4.7c1.8-3.1 5.4-5.5 9.5-5.5 2.8 0 4.7.4 6 .9l-1.4 5.6zm36.3 33.5c-9.3 0-16.5-6.9-16.5-19.9 0-13 7.4-20 16.8-20s16.5 6.7 16.5 19.7c0 12.9-7.5 20.2-16.8 20.2zm.1-35.2c-6.6 0-11.1 5-11.1 15.1s4.5 15.3 11.1 15.3 11.2-5.3 11.2-15.3-4.5-15.1-11.2-15.1zm35.1-13.7c-2.3 0-3.9.8-3.9 4v5.7h7.5v4.6h-7.5v33.7h-5.5v-33.7H308v-4.6h5.3v-5.3c0-6.9 3.7-9.4 9.1-9.4 2.2 0 3.5.2 4.8.7v5.2c-1.3-.6-2.7-.9-4.5-.9zm44.8 48.9c-12.5 0-20.7-11.3-20.7-26.3 0-15.2 8.5-26.4 20.9-26.4 7 0 12.3 2.6 16.3 8.2l-4.5 3.4c-3.3-4.5-6.4-6.4-11.9-6.4-8.8 0-15 8.7-15 21.1 0 12.5 6.5 21.2 15.1 21.2 5.5 0 9.3-2.5 12.6-6.7l3.9 3.4c-3.7 5-9.3 8.5-16.7 8.5zm37.5 0c-9.3 0-16.5-6.9-16.5-19.9 0-13 7.4-20 16.8-20s16.5 6.7 16.5 19.7c0 12.9-7.5 20.2-16.8 20.2zm.1-35.2c-6.6 0-11.1 5-11.1 15.1s4.5 15.3 11.1 15.3 11.2-5.3 11.2-15.3-4.5-15.1-11.2-15.1zm46.3 34.4v-4.7c-2.7 2.9-6.4 5.5-11.5 5.5-7.7 0-13.7-5.8-13.7-19.3 0-13.6 6.4-20.6 14.5-20.6 4.8 0 8.1 2 10.8 5.1v-16.1l5.5-3.1v53.2h-5.6zm0-28.6c-2.1-3.2-5.8-5.8-10.4-5.8-6.4 0-9.5 5.5-9.5 15.8 0 9.6 3.6 14.7 9.7 14.7 4.1 0 7.4-2.2 10.1-5.5v-19.2zm42.9 11.3h-25.5c.5 8.2 4.4 13.4 10.7 13.4 4.5 0 7.1-1.3 10.6-3.7l2.6 3.9c-4.6 2.9-8 4.5-13.7 4.5-7 0-15.5-5.1-15.5-20.1 0-12.2 6.7-19.8 15.8-19.8 10 0 15.4 7.9 15.4 18.8-.1 1.3-.2 2.1-.4 3zm-15.2-17.1c-5.7 0-9.6 4.1-10.3 12.6h20.7c-.5-7.4-3.7-12.6-10.4-12.6zM549.1 0h51.1v25.5h-51.1zm50.8 25.5h25.5V51h-25.5zM625.4 0h51.1v25.5h-51.1zm51.3 25.5h25.5v51.1h-25.5zm-153.2 0H549v51.1h-25.5zm127.7 51.1h25.5v25.5h-25.5zm-51.1 51.1h25.5v25.5h-25.5zm25.6-25.5h25.5v25.5h-25.5zm-76.6-25.6h25.5v25.5h-25.5zm25.5 25.6h25.5v25.5h-25.5z"/></svg>